<?xml version="1.0" encoding="utf-8"?>
<!-- Generator: Adobe Illustrator 25.1.0, SVG Export Plug-In . SVG Version: 6.00 Build 0)  -->
<svg version="1.1" id="Ebene_1" xmlns="http://www.w3.org/2000/svg" xmlns:xlink="http://www.w3.org/1999/xlink" x="0px" y="0px"
	 viewBox="0 0 362.2 91.2" style="enable-background:new 0 0 362.2 91.2;" xml:space="preserve">
<style type="text/css">
	.st0{fill:#333399;}
	.st1{fill:#FFFFFF;}
</style>
<rect class="st0" width="362.2" height="91.2"/>
<path class="st1" d="M11.3,44.9L6,50.2c-0.6,0.6-0.6,1.5,0,2.1l1.1,1.1l7.4-7.4l-1.1-1.1c-0.3-0.3-0.7-0.4-1.1-0.4
	C12,44.4,11.6,44.6,11.3,44.9z"/>
<path class="st1" d="M48.8,11.7L52.5,8l-1.1-1.1c-0.6-0.6-1.5-0.6-2.1,0L44,12.2c-0.6,0.6-0.6,1.5,0,2.1l1.1,1.1L48.8,11.7z"/>
<path class="st1" d="M37.8,82l5.3-5.3c0.3-0.3,0.4-0.7,0.4-1.1c0-0.4-0.2-0.8-0.4-1.1l-1.1-1.1l-7.4,7.4l1.1,1.1
	C36.3,82.6,37.2,82.6,37.8,82z"/>
<path class="st1" d="M72.6,42.7l1.1,1c0.6,0.5,1.5,0.5,2.1,0l5.3-5.1c0.6-0.6,0.6-1.5,0-2.1l-1.1-1L72.6,42.7z"/>
<path class="st1" d="M81,7c-6.4-6.4-16.9-6.4-23.3,0l-51,51c-6.4,6.5-6.3,16.8,0.1,23.3s16.8,6.4,23.3,0.1l1.5-1.5l9.5-9.5
	l28.5-28.4l9.5-9.5l2-2C87.4,23.9,87.4,13.5,81,7z M17.6,66c-0.2,0.6-0.8,0.9-1.4,0.9c-0.2,0-0.4-0.1-0.6-0.1
	c-0.4-0.1-0.7-0.4-0.8-0.8c-0.1-0.2-0.1-0.4-0.1-0.6c0-0.6,0.4-1.2,0.9-1.4c0.2-0.1,0.4-0.1,0.6-0.1c0.5,0,1,0.3,1.3,0.7
	c0.1,0.1,0.1,0.2,0.1,0.3c0,0.1,0.1,0.2,0.1,0.3c0,0.1,0,0.2,0,0.3C17.7,65.6,17.6,65.8,17.6,66z M23.9,72.4
	c-0.1,0.2-0.2,0.3-0.3,0.5c-0.3,0.3-0.7,0.4-1.1,0.4c-0.2,0-0.4-0.1-0.6-0.1c-0.2-0.1-0.3-0.2-0.5-0.3c-0.1-0.1-0.2-0.3-0.3-0.5
	c-0.1-0.2-0.1-0.4-0.1-0.6c0-0.4,0.2-0.8,0.4-1.1c0.1-0.1,0.3-0.2,0.5-0.3c0.2-0.1,0.4-0.1,0.6-0.1c0.5,0,1,0.3,1.3,0.7
	c0.1,0.1,0.1,0.2,0.1,0.3c0,0.1,0.1,0.2,0.1,0.3c0,0.1,0,0.2,0,0.3C24.1,72,24,72.2,23.9,72.4z M23.9,59.7c-0.2,0.6-0.8,0.9-1.4,0.9
	c-0.2,0-0.4-0.1-0.6-0.1c-0.4-0.1-0.7-0.4-0.8-0.8c-0.1-0.2-0.1-0.4-0.1-0.6c0-0.4,0.2-0.8,0.4-1.1c0.1-0.1,0.3-0.2,0.5-0.3
	c0.2-0.1,0.4-0.1,0.6-0.1c0.5,0,1,0.3,1.3,0.7c0.1,0.1,0.1,0.2,0.1,0.3c0,0.1,0.1,0.2,0.1,0.3c0,0.1,0,0.2,0,0.3
	C24.1,59.3,24,59.5,23.9,59.7L23.9,59.7z M30.3,66c-0.1,0.2-0.2,0.3-0.3,0.5c-0.3,0.3-0.7,0.4-1.1,0.4c-0.2,0-0.4-0.1-0.6-0.1
	c-0.4-0.1-0.7-0.4-0.8-0.8c-0.1-0.2-0.1-0.4-0.1-0.6c0-0.4,0.2-0.8,0.4-1.1c0.1-0.1,0.3-0.2,0.5-0.3c0.2-0.1,0.4-0.1,0.6-0.1
	c0.5,0,1,0.3,1.3,0.7c0.1,0.1,0.1,0.2,0.1,0.3c0,0.1,0.1,0.2,0.1,0.3c0,0.1,0,0.2,0,0.3C30.4,65.6,30.4,65.8,30.3,66L30.3,66z
	 M60.1,23.5c-0.2,0.6-0.8,0.9-1.4,0.9c-0.2,0-0.4-0.1-0.6-0.1c-0.4-0.1-0.7-0.4-0.8-0.8c-0.1-0.2-0.1-0.4-0.1-0.6
	c0-0.4,0.2-0.8,0.4-1.1c0.1-0.1,0.3-0.2,0.5-0.3c0.2-0.1,0.4-0.1,0.6-0.1c0.5,0,1,0.3,1.3,0.7c0.1,0.1,0.1,0.2,0.1,0.3
	c0,0.1,0.1,0.2,0.1,0.3c0,0.1,0,0.2,0,0.3C60.2,23.1,60.2,23.3,60.1,23.5z M66.4,29.9c-0.2,0.6-0.8,0.9-1.4,0.9
	c-0.2,0-0.4-0.1-0.6-0.1c-0.4-0.1-0.7-0.4-0.8-0.8c-0.1-0.2-0.1-0.4-0.1-0.6c0-0.4,0.2-0.8,0.4-1.1c0.1-0.1,0.3-0.2,0.5-0.3
	c0.2-0.1,0.4-0.1,0.6-0.1c0.5,0,1,0.3,1.3,0.7c0.1,0.1,0.1,0.2,0.1,0.3c0,0.1,0.1,0.2,0.1,0.3c0,0.1,0,0.2,0,0.3
	C66.6,29.5,66.5,29.7,66.4,29.9z M66.4,17.2c-0.1,0.2-0.2,0.3-0.3,0.5c-0.3,0.3-0.7,0.4-1.1,0.4c-0.2,0-0.4-0.1-0.6-0.1
	c-0.4-0.1-0.7-0.4-0.8-0.8c-0.1-0.2-0.1-0.4-0.1-0.6c0-0.4,0.2-0.8,0.4-1.1c0.1-0.1,0.3-0.2,0.5-0.3c0.2-0.1,0.4-0.1,0.6-0.1
	c0.5,0,1,0.3,1.3,0.7c0.1,0.1,0.1,0.2,0.1,0.3c0,0.1,0.1,0.2,0.1,0.3c0,0.1,0,0.2,0,0.3C66.6,16.8,66.5,17,66.4,17.2z M72.8,23.5
	c-0.2,0.6-0.8,0.9-1.4,0.9c-0.2,0-0.4-0.1-0.6-0.1c-0.2-0.1-0.3-0.2-0.5-0.3c-0.1-0.1-0.2-0.3-0.3-0.5c-0.1-0.2-0.1-0.4-0.1-0.6
	c0-0.4,0.2-0.8,0.5-1.1c0.1-0.1,0.3-0.2,0.5-0.3c0.2-0.1,0.4-0.1,0.6-0.1c0.5,0,1,0.3,1.3,0.7c0.1,0.1,0.1,0.2,0.1,0.3
	c0,0.1,0.1,0.2,0.1,0.3c0,0.1,0,0.2,0,0.3C72.9,23.1,72.9,23.3,72.8,23.5z"/>
<g>
	<path class="st1" d="M60.9,74.7c-2.3,0-4.1-0.6-5.6-1.8c-1.5-1.2-2.5-3-3.1-5.3l4.7-1.8c0.4,1.5,0.9,2.6,1.5,3.4
		c0.6,0.8,1.4,1.2,2.4,1.2c0.7,0,1.3-0.2,1.7-0.6c0.4-0.4,0.6-0.9,0.6-1.5c0-0.7-0.2-1.4-0.7-2c-0.5-0.6-1.2-1.4-2.3-2.3l-3.3-2.8
		c-1.2-1-2.1-2.1-2.9-3.2s-1.1-2.4-1.1-4c0-1.5,0.3-2.7,1-3.8c0.7-1,1.6-1.9,2.8-2.4c1.2-0.6,2.5-0.9,3.9-0.9c2.2,0,3.9,0.6,5.3,1.9
		c1.3,1.3,2.2,3,2.5,5.1l-4.2,1.8c-0.2-0.7-0.4-1.4-0.7-2.1c-0.3-0.6-0.7-1.2-1.1-1.6c-0.5-0.4-1-0.6-1.6-0.6
		c-0.7,0-1.2,0.2-1.6,0.6c-0.4,0.4-0.6,0.9-0.6,1.5c0,0.5,0.2,1.1,0.7,1.6c0.5,0.6,1.1,1.2,1.9,1.9l3.3,3c0.7,0.6,1.4,1.3,2.1,2
		c0.7,0.7,1.2,1.5,1.6,2.4c0.4,0.9,0.7,1.9,0.7,3.1c0,1.6-0.4,2.9-1.1,3.9c-0.7,1.1-1.7,1.9-2.9,2.4S62.4,74.7,60.9,74.7z"/>
	<path class="st1" d="M72.5,74.3v-27h6.4v27H72.5z"/>
	<path class="st1" d="M92,74.7c-2.1,0-3.8-0.4-5-1.2c-1.3-0.8-2.2-1.9-2.8-3.4c-0.6-1.5-0.9-3.2-0.9-5.3v-8.1c0-2.1,0.3-3.9,0.9-5.3
		c0.6-1.5,1.5-2.6,2.8-3.4c1.3-0.8,2.9-1.2,5-1.2c1.9,0,3.5,0.3,4.7,0.9s2.1,1.5,2.7,2.8c0.6,1.2,0.8,2.8,0.8,4.6v2.2h-6v-2.4
		c0-0.9-0.1-1.7-0.2-2.2c-0.1-0.5-0.4-0.9-0.7-1.2c-0.3-0.2-0.8-0.4-1.4-0.4s-1,0.1-1.4,0.4c-0.3,0.3-0.6,0.8-0.7,1.4
		c-0.1,0.7-0.2,1.6-0.2,2.7v9.9c0,1.7,0.2,2.9,0.6,3.5c0.4,0.6,1,0.9,1.8,0.9c0.6,0,1.1-0.1,1.4-0.4s0.5-0.7,0.7-1.2
		c0.1-0.5,0.2-1.2,0.2-2v-2.9h6v2.6c0,1.8-0.3,3.3-0.9,4.6c-0.6,1.3-1.5,2.2-2.7,2.9C95.5,74.4,93.9,74.7,92,74.7z"/>
	<path class="st1" d="M104.5,74.3V36.5h6.4v21.7l7-10.9h6.9l-6.8,10.8l6.6,16.2h-6.7L113,61l-2.1,3v10.3H104.5z"/>
	<path class="st1" d="M124.7,81.4v-4.4h16.6v4.4H124.7z"/>
	<path class="st1" d="M151.1,74.7c-2.3,0-4.1-0.6-5.6-1.8s-2.5-3-3.1-5.3l4.7-1.8c0.4,1.5,0.9,2.6,1.5,3.4c0.6,0.8,1.4,1.2,2.4,1.2
		c0.7,0,1.3-0.2,1.7-0.6s0.6-0.9,0.6-1.5c0-0.7-0.2-1.4-0.7-2c-0.5-0.6-1.2-1.4-2.3-2.3l-3.3-2.8c-1.2-1-2.1-2.1-2.9-3.2
		c-0.7-1.1-1.1-2.4-1.1-4c0-1.5,0.3-2.7,1-3.8c0.7-1,1.6-1.9,2.8-2.4c1.2-0.6,2.5-0.9,3.9-0.9c2.2,0,3.9,0.6,5.3,1.9
		c1.3,1.3,2.2,3,2.5,5.1l-4.2,1.8c-0.2-0.7-0.4-1.4-0.7-2.1c-0.3-0.6-0.7-1.2-1.1-1.6c-0.5-0.4-1-0.6-1.6-0.6
		c-0.7,0-1.2,0.2-1.6,0.6c-0.4,0.4-0.6,0.9-0.6,1.5c0,0.5,0.2,1.1,0.7,1.6c0.5,0.6,1.1,1.2,1.9,1.9l3.3,3c0.7,0.6,1.4,1.3,2.1,2
		c0.7,0.7,1.2,1.5,1.6,2.4c0.4,0.9,0.7,1.9,0.7,3.1c0,1.6-0.4,2.9-1.1,3.9c-0.7,1.1-1.7,1.9-2.9,2.4S152.6,74.7,151.1,74.7z"/>
	<path class="st1" d="M162.5,74.3V36.5h6.4v21.7l7-10.9h6.9L176,58.1l6.6,16.2h-6.7L171,61l-2.1,3v10.3H162.5z"/>
	<path class="st1" d="M190.5,74.7c-1.2,0-2.3-0.3-3.1-1c-0.9-0.6-1.5-1.4-2-2.4c-0.5-1-0.7-2-0.7-3.1c0-1.7,0.3-3.1,0.9-4.3
		c0.6-1.2,1.4-2.1,2.5-2.9c1-0.8,2.2-1.5,3.5-2c1.3-0.6,2.6-1.1,4-1.6v-2.3c0-0.8-0.1-1.4-0.2-2c-0.1-0.5-0.3-0.9-0.6-1.2
		c-0.3-0.3-0.8-0.4-1.4-0.4c-0.5,0-1,0.1-1.3,0.4c-0.3,0.2-0.6,0.6-0.7,1.1c-0.1,0.5-0.2,1-0.3,1.6l-0.1,1.6l-6-0.2
		c0.1-3.1,0.9-5.4,2.3-6.9c1.4-1.5,3.7-2.2,6.6-2.2c2.7,0,4.7,0.7,5.9,2.2s1.8,3.5,1.8,6.1v12.5c0,1,0,1.9,0.1,2.7
		c0,0.8,0.1,1.5,0.2,2.2c0.1,0.7,0.1,1.2,0.2,1.7h-5.7c-0.1-0.6-0.2-1.3-0.4-2.1c-0.1-0.8-0.2-1.4-0.3-1.8c-0.3,1.1-0.9,2.1-1.8,3
		C193.2,74.3,192,74.7,190.5,74.7z M192.8,70c0.4,0,0.8-0.1,1.1-0.3c0.4-0.2,0.7-0.4,1-0.7c0.3-0.3,0.5-0.5,0.6-0.7v-7.5
		c-0.7,0.4-1.3,0.8-1.9,1.2c-0.6,0.4-1.1,0.8-1.6,1.3c-0.5,0.5-0.8,1-1,1.6s-0.4,1.2-0.4,2c0,1,0.2,1.8,0.6,2.4
		C191.6,69.7,192.1,70,192.8,70z"/>
	<path class="st1" d="M213.9,74.6c-1.7,0-3.1-0.3-4-0.8c-1-0.6-1.7-1.4-2.1-2.4c-0.4-1.1-0.6-2.3-0.6-3.8V51.5h-2.7v-4.2h2.7v-8.1
		h6.4v8.1h4.1v4.2h-4.1V67c0,0.9,0.2,1.6,0.6,2c0.4,0.4,1,0.6,1.8,0.6c0.3,0,0.7,0,1,0c0.3,0,0.6-0.1,1-0.1v4.9
		c-0.5,0.1-1.1,0.1-1.8,0.2C215.5,74.6,214.7,74.6,213.9,74.6z"/>
	<path class="st1" d="M229.8,74.7c-2,0-3.7-0.4-5-1.1s-2.2-1.9-2.8-3.4c-0.6-1.5-0.9-3.3-0.9-5.3v-8.1c0-2.1,0.3-4,0.9-5.4
		c0.6-1.5,1.6-2.6,2.8-3.3c1.3-0.7,2.9-1.1,4.9-1.1c2.1,0,3.8,0.4,5,1.2c1.2,0.8,2.1,2,2.6,3.5c0.5,1.5,0.8,3.4,0.8,5.6v3.8h-10.7
		v5.3c0,0.9,0.1,1.6,0.3,2.1c0.2,0.6,0.4,1,0.8,1.2c0.4,0.2,0.8,0.4,1.4,0.4c0.6,0,1-0.1,1.4-0.4s0.6-0.7,0.7-1.2
		c0.2-0.5,0.2-1.2,0.2-1.9v-2.2h5.9v1.8c0,2.7-0.7,4.8-2.1,6.3C234.7,74,232.6,74.7,229.8,74.7z M227.4,58h4.8v-2.6
		c0-0.9-0.1-1.7-0.2-2.3c-0.2-0.6-0.4-1-0.7-1.3s-0.8-0.4-1.4-0.4c-0.6,0-1,0.1-1.4,0.4s-0.6,0.7-0.7,1.4c-0.2,0.7-0.2,1.6-0.2,2.8
		V58z"/>
	<path class="st1" d="M254.1,74.7c-1,0-1.9-0.2-2.8-0.7c-0.9-0.5-1.7-1-2.4-1.7v2h-6.4V36.5h6.4v12.9c0.8-0.7,1.6-1.3,2.5-1.8
		c0.9-0.5,1.9-0.7,3-0.7c1.2,0,2.2,0.3,3,0.8s1.4,1.3,1.8,2.2c0.4,0.9,0.7,1.9,0.9,2.9c0.2,1,0.3,2,0.3,3v9.2c0,1.8-0.2,3.4-0.6,4.9
		c-0.4,1.5-1.1,2.6-2,3.5S255.6,74.7,254.1,74.7z M251.7,70.3c0.7,0,1.2-0.2,1.5-0.7c0.3-0.5,0.5-1.1,0.7-1.8
		c0.1-0.8,0.2-1.6,0.2-2.5v-9.7c0-0.8-0.1-1.6-0.2-2.3c-0.1-0.7-0.4-1.2-0.7-1.6c-0.3-0.4-0.8-0.6-1.5-0.6c-0.5,0-1,0.1-1.4,0.4
		c-0.5,0.2-0.9,0.5-1.3,0.8v17.1c0.4,0.3,0.8,0.5,1.3,0.7C250.7,70.2,251.2,70.3,251.7,70.3z"/>
	<path class="st1" d="M272.9,74.7c-2,0-3.6-0.4-4.9-1.1c-1.3-0.7-2.2-1.8-2.9-3.2c-0.6-1.4-1-3.1-1-5.1v-9.1c0-2,0.3-3.7,1-5.1
		s1.6-2.5,2.9-3.2c1.3-0.7,2.9-1.1,4.9-1.1c2,0,3.6,0.4,4.9,1.1c1.3,0.7,2.3,1.8,2.9,3.2c0.6,1.4,1,3.1,1,5.1v9.1c0,2-0.3,3.7-1,5.1
		c-0.6,1.4-1.6,2.5-2.9,3.2S274.9,74.7,272.9,74.7z M273,70.3c0.7,0,1.2-0.2,1.6-0.6c0.3-0.4,0.6-1,0.7-1.7c0.1-0.7,0.1-1.5,0.1-2.3
		v-9.9c0-0.8,0-1.6-0.1-2.3c-0.1-0.7-0.3-1.2-0.7-1.7s-0.9-0.6-1.6-0.6c-0.7,0-1.2,0.2-1.6,0.6c-0.3,0.4-0.6,1-0.7,1.7
		c-0.1,0.7-0.2,1.4-0.2,2.3v9.9c0,0.8,0.1,1.6,0.2,2.3c0.1,0.7,0.3,1.3,0.7,1.7C271.7,70.1,272.3,70.3,273,70.3z"/>
	<path class="st1" d="M291.3,74.7c-1.2,0-2.3-0.3-3.1-1c-0.9-0.6-1.5-1.4-2-2.4c-0.5-1-0.7-2-0.7-3.1c0-1.7,0.3-3.1,0.9-4.3
		c0.6-1.2,1.4-2.1,2.5-2.9c1-0.8,2.2-1.5,3.5-2c1.3-0.6,2.6-1.1,4-1.6v-2.3c0-0.8-0.1-1.4-0.2-2c-0.1-0.5-0.3-0.9-0.6-1.2
		c-0.3-0.3-0.8-0.4-1.4-0.4c-0.5,0-1,0.1-1.3,0.4c-0.3,0.2-0.6,0.6-0.7,1.1c-0.1,0.5-0.2,1-0.3,1.6l-0.1,1.6l-6-0.2
		c0.1-3.1,0.9-5.4,2.3-6.9c1.4-1.5,3.7-2.2,6.6-2.2c2.7,0,4.7,0.7,5.9,2.2s1.8,3.5,1.8,6.1v12.5c0,1,0,1.9,0.1,2.7
		c0,0.8,0.1,1.5,0.2,2.2c0.1,0.7,0.1,1.2,0.2,1.7h-5.7c-0.1-0.6-0.2-1.3-0.4-2.1c-0.1-0.8-0.2-1.4-0.3-1.8c-0.3,1.1-0.9,2.1-1.8,3
		C293.9,74.3,292.8,74.7,291.3,74.7z M293.6,70c0.4,0,0.8-0.1,1.1-0.3c0.4-0.2,0.7-0.4,1-0.7c0.3-0.3,0.5-0.5,0.6-0.7v-7.5
		c-0.7,0.4-1.3,0.8-1.9,1.2c-0.6,0.4-1.1,0.8-1.6,1.3c-0.5,0.5-0.8,1-1,1.6s-0.4,1.2-0.4,2c0,1,0.2,1.8,0.6,2.4
		C292.4,69.7,292.9,70,293.6,70z"/>
	<path class="st1" d="M307.3,74.3v-27h6.4v4.2c0.9-1.6,1.9-2.7,2.8-3.4s2-1.1,3.1-1.1c0.2,0,0.4,0,0.5,0c0.1,0,0.3,0,0.5,0.1v6.6
		c-0.4-0.2-0.8-0.3-1.2-0.4c-0.5-0.1-0.9-0.2-1.4-0.2c-0.8,0-1.6,0.2-2.3,0.6c-0.7,0.4-1.3,1.1-2,2v18.6H307.3z"/>
	<path class="st1" d="M329.7,74.7c-2.1,0-3.8-0.8-4.9-2.3c-1.1-1.5-1.7-4-1.7-7.3v-8.3c0-1.9,0.2-3.6,0.6-5c0.4-1.5,1.1-2.7,2-3.6
		c0.9-0.9,2.2-1.3,3.8-1.3c1,0,1.9,0.2,2.7,0.6c0.8,0.4,1.6,0.9,2.3,1.5V36.5h6.4v37.8h-6.4v-1.9c-0.7,0.7-1.5,1.3-2.3,1.7
		C331.5,74.5,330.6,74.7,329.7,74.7z M332,70.3c0.3,0,0.7-0.1,1.2-0.2c0.4-0.2,0.9-0.4,1.4-0.7V52.1c-0.4-0.2-0.8-0.5-1.2-0.6
		c-0.4-0.2-0.9-0.3-1.4-0.3c-0.9,0-1.5,0.4-1.9,1.2c-0.4,0.8-0.5,1.8-0.5,3v10.1c0,0.9,0.1,1.7,0.2,2.4c0.1,0.7,0.4,1.3,0.7,1.7
		C330.8,70.1,331.4,70.3,332,70.3z"/>
	<path class="st1" d="M353.1,74.7c-2.3,0-4.1-0.6-5.6-1.8s-2.5-3-3.1-5.3l4.7-1.8c0.4,1.5,0.9,2.6,1.5,3.4c0.6,0.8,1.4,1.2,2.4,1.2
		c0.7,0,1.3-0.2,1.7-0.6s0.6-0.9,0.6-1.5c0-0.7-0.2-1.4-0.7-2c-0.5-0.6-1.2-1.4-2.3-2.3l-3.3-2.8c-1.2-1-2.1-2.1-2.9-3.2
		c-0.7-1.1-1.1-2.4-1.1-4c0-1.5,0.3-2.7,1-3.8c0.7-1,1.6-1.9,2.8-2.4c1.2-0.6,2.5-0.9,3.9-0.9c2.2,0,3.9,0.6,5.3,1.9
		c1.3,1.3,2.2,3,2.5,5.1l-4.2,1.8c-0.2-0.7-0.4-1.4-0.7-2.1c-0.3-0.6-0.7-1.2-1.1-1.6c-0.5-0.4-1-0.6-1.6-0.6
		c-0.7,0-1.2,0.2-1.6,0.6c-0.4,0.4-0.6,0.9-0.6,1.5c0,0.5,0.2,1.1,0.7,1.6c0.5,0.6,1.1,1.2,1.9,1.9l3.3,3c0.7,0.6,1.4,1.3,2.1,2
		c0.7,0.7,1.2,1.5,1.6,2.4c0.4,0.9,0.7,1.9,0.7,3.1c0,1.6-0.4,2.9-1.1,3.9c-0.7,1.1-1.7,1.9-2.9,2.4S354.5,74.7,353.1,74.7z"/>
</g>
</svg>
